<?xml version="1.0" standalone="no"?>
<!DOCTYPE svg PUBLIC "-//W3C//DTD SVG 20010904//EN"
 "http://www.w3.org/TR/2001/REC-SVG-20010904/DTD/svg10.dtd">
<svg version="1.0" xmlns="http://www.w3.org/2000/svg"
 width="138.000000pt" height="138.000000pt" viewBox="0 0 138.000000 138.000000"
 preserveAspectRatio="xMidYMid meet">

<g transform="translate(0.000000,138.000000) scale(0.100000,-0.100000)"
fill="#000000" stroke="none">
<path d="M456 1315 c-175 -48 -326 -189 -376 -352 -24 -78 -26 -203 -5 -282
32 -123 71 -176 245 -332 l40 -37 0 -120 c0 -131 7 -150 55 -138 l25 6 0 136
c0 161 -11 189 -91 244 -149 101 -220 253 -199 422 15 122 87 238 191 307 71
48 136 68 249 77 268 21 444 -98 482 -328 l12 -73 87 -90 c64 -65 85 -93 78
-102 -6 -6 -36 -17 -67 -24 -105 -21 -102 -18 -102 -134 0 -165 -16 -185 -149
-185 -36 0 -71 -4 -78 -8 -8 -5 -13 -45 -14 -121 -1 -117 3 -130 42 -131 30 0
39 23 39 102 l0 78 61 0 c69 0 120 23 154 68 16 22 21 48 25 131 l5 104 70 23
c81 26 105 50 105 106 0 37 -7 47 -88 131 -86 89 -89 94 -100 157 -31 174
-156 312 -331 364 -69 20 -293 21 -365 1z"/>
<path d="M501 1140 c-13 -6 -37 -21 -53 -35 -16 -14 -36 -25 -43 -25 -34 0
-105 -85 -105 -126 0 -9 -11 -29 -25 -45 -28 -34 -40 -85 -31 -134 8 -42 58
-103 92 -111 21 -5 24 -12 24 -54 0 -61 7 -80 30 -80 45 0 50 9 50 90 0 98 -4
108 -45 116 -69 13 -91 81 -42 132 14 15 28 44 32 64 8 40 27 62 65 73 14 4
37 19 52 32 39 37 98 37 136 0 23 -22 37 -27 80 -27 28 0 62 -5 76 -11 33 -16
52 -69 35 -101 -15 -29 -25 -35 -71 -48 -38 -11 -46 -27 -32 -64 9 -23 69 -20
113 5 52 29 74 64 79 125 8 97 -64 174 -163 174 -26 0 -52 9 -78 27 -43 30
-132 41 -176 23z"/>
</g>
</svg>
